<?xml version="1.0" encoding="UTF-8" standalone="no"?>
<svg
   xmlns:dc="http://purl.org/dc/elements/1.1/"
   xmlns:cc="http://creativecommons.org/ns#"
   xmlns:rdf="http://www.w3.org/1999/02/22-rdf-syntax-ns#"
   xmlns:svg="http://www.w3.org/2000/svg"
   xmlns="http://www.w3.org/2000/svg"
   xmlns:sodipodi="http://sodipodi.sourceforge.net/DTD/sodipodi-0.dtd"
   xmlns:inkscape="http://www.inkscape.org/namespaces/inkscape"
   enable-background="new 45.6 168.9 504 504"
   id="Layer_1"
   version="1.1"
   viewBox="45.6 168.9 512 512"
   xml:space="preserve"
   inkscape:version="0.48.4 r9939"
   width="100%"
   height="100%"
   sodipodi:docname="1443283425_photo_reel.svg"><metadata
     id="metadata6246"><rdf:RDF><cc:Work
         rdf:about=""><dc:format>image/svg+xml</dc:format><dc:type
           rdf:resource="http://purl.org/dc/dcmitype/StillImage" /><dc:title></dc:title></cc:Work></rdf:RDF></metadata><defs
     id="defs6244" /><sodipodi:namedview
     pagecolor="#ffffff"
     bordercolor="#666666"
     borderopacity="1"
     objecttolerance="10"
     gridtolerance="10"
     guidetolerance="10"
     inkscape:pageopacity="0"
     inkscape:pageshadow="2"
     inkscape:window-width="1680"
     inkscape:window-height="995"
     id="namedview6242"
     showgrid="false"
     inkscape:zoom="0.93650794"
     inkscape:cx="61.968866"
     inkscape:cy="224.47355"
     inkscape:window-x="0"
     inkscape:window-y="814"
     inkscape:window-maximized="1"
     inkscape:current-layer="g6252"><inkscape:grid
       type="xygrid"
       id="grid6248"
       empspacing="1"
       visible="true"
       enabled="true"
       snapvisiblegridlinesonly="true"
       spacingx="32px"
       spacingy="32px"
       dotted="true" /></sodipodi:namedview><path
     sodipodi:type="arc"
     style="fill:#3496db;fill-opacity:1;stroke:none"
     id="path6250"
     sodipodi:cx="256"
     sodipodi:cy="256"
     sodipodi:rx="256"
     sodipodi:ry="256"
     d="m 512,256 a 256,256 0 1 1 -512,0 256,256 0 1 1 512,0 z"
     transform="matrix(0.87903867,0,0,0.87903867,76.566102,201.8661)" /><g
     id="g6252"
     transform="matrix(0.71452922,0,0,0.71452922,88.364635,105.63912)"><path
       style="fill:#673ab7"
       inkscape:connector-curvature="0"
       id="path6230"
       d="m 124,242.9 c -27.3,0 -49.6,22.3 -49.6,49.6 V 615 c 0,27.3 22.3,49.6 49.6,49.6 h 198.4 c 27.3,0 49.6,-22.3 49.6,-49.6 V 292.5 c 0,-27.3 -22.3,-49.6 -49.6,-49.6" /><g
       transform="translate(0,8)"
       id="g6232"
       style="fill:#000000;fill-opacity:1"><rect
         style="fill:#000000;fill-opacity:1"
         id="rect6234"
         y="284.5"
         x="173.60001"
         width="24.799999"
         height="322.39999" /><path
         style="fill:#000000;fill-opacity:1"
         inkscape:connector-curvature="0"
         id="path6236"
         d="m 297.6,234.9 v -24.8 c 0,-14.9 -9.9,-24.8 -24.8,-24.8 h -99.2 c -14.9,0 -24.8,9.9 -24.8,24.8 v 24.8 h 148.8 z" /></g><path
       style="fill:#a45010;fill-opacity:1"
       inkscape:connector-curvature="0"
       id="path6238"
       d="M 372.1,292.5 H 198.4 V 615 H 372 V 292.5 z M 260.4,590.2 h -37.2 v -49.6 h 37.2 v 49.6 z m 0,-223.3 h -37.2 v -49.6 h 37.2 v 49.6 z m 74.4,223.3 h -37.2 v -49.6 h 37.2 v 49.6 z M 297.6,366.9 v -49.6 h 37.2 v 49.6 h -37.2 z" /><path
       style="fill:#d06514;fill-opacity:1"
       inkscape:connector-curvature="0"
       id="path6240"
       d="m 372.1,292.5 v 24.8 h 37.2 v 49.6 h -37.2 v 173.6 h 37.2 v 49.6 H 372.1 V 615 H 520.9 V 292.5 H 372.1 z m 111.6,297.7 h -37.2 v -49.6 h 37.2 v 49.6 z m 0,-223.3 h -37.2 v -49.6 h 37.2 v 49.6 z" /></g></svg>